<svg version="1.1" id="Layer_1" xmlns="http://www.w3.org/2000/svg" xmlns:xlink="http://www.w3.org/1999/xlink" x="0px" y="0px" width="81.216px" height="33.225px" viewBox="0 0 81.216 33.225" enable-background="new 0 0 81.216 33.225" xml:space="preserve">
    <g>
        <defs>
            <path id="SVGID_1_" d="M39.262,26.75h6.475V8.69h-6.475V26.75z M0,14.244c0,3.306,2.181,4.533,3.715,5.248l0.818,0.375
                c1.056,0.478,1.533,0.785,1.533,1.466c0,0.884-0.75,1.021-1.738,1.021c-0.886,0-2.896-0.477-4.056-0.783v4.668
                c1.33,0.408,3.306,0.852,5.18,0.852c2.896,0,6.952-0.682,6.952-6.132c0-3.408-2.215-4.566-3.817-5.282l-0.681-0.307
                c-1.125-0.512-1.602-0.75-1.602-1.466c0-0.681,0.579-0.886,1.363-0.886c1.158,0,3.101,0.409,4.055,0.716V9.201
                C10.905,8.895,9.337,8.35,6.952,8.35C3.783,8.35,0,9.405,0,14.244 M32.82,10.428l-0.954-1.738H26.72V26.75h6.475v-12.37
                c0.341-0.204,1.125-0.613,2.147-0.613c0.886,0,1.738,0.17,2.385,0.341V8.724c-0.307-0.17-0.988-0.374-2.011-0.374
                C34.217,8.35,33.195,9.304,32.82,10.428 M54.939,22.387v-8.722c0.408-0.238,1.158-0.545,1.533-0.545
                c1.057,0,1.363,0.442,1.363,4.498c0,3.986-0.682,4.941-1.805,4.941C55.791,22.559,55.246,22.491,54.939,22.387 M54.667,9.814
                l-0.955-1.125h-5.248v24.536h6.475v-6.51c0.613,0.137,1.465,0.375,2.283,0.375c2.385,0,7.088-0.135,7.088-9.472
                c0-8.52-3.135-9.269-5.793-9.269C57.052,8.35,55.656,8.929,54.667,9.814 M73.992,12.2c1.191,0,1.191,1.737,1.191,4.157h-2.725
                C72.525,14.21,72.355,12.2,73.992,12.2 M66.017,17.789c0,8.655,4.941,9.301,8.996,9.301c2.25,0,4.533-0.646,5.283-0.92v-4.703
                c-0.955,0.169-3.443,0.716-5.283,0.716c-1.602,0-2.555-0.375-2.555-2.317h8.758v-2.146c0-7.225-3.033-9.371-7.225-9.371
                C69.902,8.35,66.017,10.155,66.017,17.789 M16.291,4.601l-0.818,4.089h-2.385v4.124h2.385v9.064c0,5.01,3.442,5.213,5.283,5.213
                c1.431,0,3.612-0.34,4.6-0.578v-4.602c-0.477,0.068-1.908,0.273-2.317,0.273c-0.716,0-1.091-0.238-1.091-1.464v-7.906h2.556
                l0.852-4.124h-3.408V3.237L16.291,4.601z M39.296,3.237c0,1.772,1.397,3.237,3.203,3.237c1.807,0,3.203-1.465,3.203-3.237
                C45.702,1.466,44.306,0,42.5,0C40.693,0,39.296,1.466,39.296,3.237"></path>
        </defs>
        <use xlink:href="#SVGID_1_" overflow="visible"></use>
    </g>
</svg>