<?xml version="1.0" standalone="no"?>
<!DOCTYPE svg PUBLIC "-//W3C//DTD SVG 20010904//EN"
 "http://www.w3.org/TR/2001/REC-SVG-20010904/DTD/svg10.dtd">
<svg version="1.0" xmlns="http://www.w3.org/2000/svg"
 width="216.000000pt" height="216.000000pt" viewBox="0 0 216.000000 216.000000"
 preserveAspectRatio="xMidYMid meet">
<metadata>
Created by potrace 1.11, written by Peter Selinger 2001-2013
</metadata>
<g transform="translate(0.000000,216.000000) scale(0.100000,-0.100000)"
fill="#000000" stroke="none">
<path d="M587 2046 c-120 -62 -219 -117 -220 -121 -1 -5 14 -10 33 -11 134
-10 196 -16 275 -30 350 -59 557 -178 621 -356 21 -59 25 -161 8 -226 -16 -59
-69 -140 -112 -170 -82 -58 -202 -105 -322 -127 -8 -1 -32 -5 -53 -9 l-39 -7
7 143 c5 79 9 166 10 193 2 28 6 118 10 201 l7 150 -201 1 c-110 0 -201 -3
-202 -6 -1 -3 -2 -33 -4 -66 -2 -33 -6 -100 -9 -150 -5 -82 -8 -134 -21 -405
-3 -47 -7 -130 -10 -185 -8 -158 -14 -262 -20 -375 -3 -58 -7 -145 -10 -195
-3 -50 -7 -136 -10 -193 l-6 -102 202 2 c183 3 202 5 205 20 1 10 5 78 8 150
4 73 8 162 11 198 5 66 18 317 18 358 1 26 2 26 107 6 374 -70 562 -289 556
-644 l-1 -90 212 0 212 0 -3 168 c-2 92 -6 178 -10 192 -4 14 -9 43 -12 65
-10 67 -61 194 -108 269 -54 85 -108 142 -182 191 -60 40 -60 38 -4 94 43 44
86 103 123 171 112 206 96 442 -44 646 -136 198 -426 341 -728 358 l-76 5
-218 -113z"/>
</g>
</svg>
